<?xml version="1.0" encoding="UTF-8"?>
<svg version="1.1" xmlns="http://www.w3.org/2000/svg" width="1024" height="1024">
<path d="M0 0 C337.92 0 675.84 0 1024 0 C1024 337.92 1024 675.84 1024 1024 C686.08 1024 348.16 1024 0 1024 C0 686.08 0 348.16 0 0 Z " fill="#070732" transform="translate(0,0)"/>
<path d="M0 0 C14.19 0 28.38 0 43 0 C41.515 4.455 41.515 4.455 40 9 C41.44282349 8.9685791 41.44282349 8.9685791 42.91479492 8.93652344 C46.54712522 8.86310427 50.17939279 8.81783794 53.81225586 8.78027344 C55.37259007 8.76038635 56.93285209 8.73326648 58.49291992 8.69824219 C71.82105585 8.40691681 83.98610432 9.69127168 95 18 C95.80824219 18.59941406 96.61648438 19.19882812 97.44921875 19.81640625 C100.18596116 22.15919186 102.15577977 24.55293457 104.3125 27.4375 C105.18741658 28.59771916 106.06242316 29.75787046 106.9375 30.91796875 C107.66066406 31.88355713 107.66066406 31.88355713 108.3984375 32.86865234 C111.51302908 37.01352803 114.6674206 41.12824352 117.8125 45.25 C119.19811293 47.06886092 120.58352993 48.88787112 121.96875 50.70703125 C122.64679688 51.59729004 123.32484375 52.48754883 124.0234375 53.40478516 C125.28654981 55.06324413 126.54957892 56.72176649 127.8125 58.38037109 C134.1932433 66.75690939 140.6194839 75.09253029 147.13671875 83.36328125 C155.51888952 94.00297965 163.82597951 104.69934017 172 115.5 C172.61069336 116.30002441 173.22138672 117.10004883 173.85058594 117.92431641 C183.10821244 130.22111419 189.42772769 141.1944512 188 157 C185.74717643 172.62769506 175.94105188 184.00944097 166.51904297 196.04882812 C164.54041203 198.59032901 162.61054352 201.16625631 160.6875 203.75 C156.61920289 209.19422941 152.49897558 214.59785604 148.375 220 C142.98749558 227.05870451 137.63161367 234.13962203 132.3125 241.25 C126.08974522 249.56627018 119.80606778 257.833232 113.47705078 266.06884766 C112.04687728 267.93871086 110.62899515 269.81722019 109.21484375 271.69921875 C99.50357155 284.59235967 90.53018456 293.29533818 74 296 C70.42309737 296.26044383 66.864709 296.26400114 63.27954102 296.24291992 C62.24756088 296.24481827 61.21558075 296.24671661 60.15232849 296.24867249 C56.76944177 296.25235272 53.3867736 296.24171934 50.00390625 296.23046875 C47.6450147 296.22927578 45.28612267 296.22882404 42.92723083 296.2290802 C37.99906413 296.22752035 33.07097058 296.21926541 28.14282227 296.20581055 C21.81519656 296.18875605 15.48765062 296.18499834 9.16000462 296.18575573 C4.29686212 296.18548444 -0.56626282 296.18001099 -5.42939949 296.17275429 C-7.76388478 296.16956617 -10.09837207 296.16759988 -12.43285942 296.16686058 C-15.68370874 296.16470224 -18.93447182 296.15597087 -22.18530273 296.14526367 C-23.64007523 296.14594345 -23.64007523 296.14594345 -25.12423706 296.14663696 C-26.44670189 296.14023949 -26.44670189 296.14023949 -27.79588318 296.13371277 C-28.56403068 296.13203692 -29.33217817 296.13036108 -30.12360287 296.12863445 C-32 296 -32 296 -34 295 C-31.49120815 287.13151648 -28.73055572 279.3791212 -25 272 C-23.99302084 269.85743293 -22.99365496 267.71127884 -22 265.5625 C-21.484375 264.45003906 -20.96875 263.33757812 -20.4375 262.19140625 C-19.53942685 260.19758625 -18.67847121 258.18613026 -17.875 256.15234375 C-17 254 -17 254 -16 253 C-14.52256971 252.92538231 -13.04166758 252.91673166 -11.5625 252.9375 C-10.22058594 252.94910156 -10.22058594 252.94910156 -8.8515625 252.9609375 C-6.95052083 252.98697917 -5.04947917 253.01302083 -3.1484375 253.0390625 C-1.80652344 253.05066406 -1.80652344 253.05066406 -0.4375 253.0625 C0.80193359 253.07990234 0.80193359 253.07990234 2.06640625 253.09765625 C4.00723557 253.21627765 4.00723557 253.21627765 5 252 C6.41476394 251.89332015 7.83468447 251.85381115 9.25341797 251.84228516 C10.15881317 251.83202301 11.06420837 251.82176086 11.99703979 251.81118774 C12.98543854 251.80388641 13.97383728 251.79658508 14.9921875 251.7890625 C17.08073657 251.76096171 19.16927812 251.7322971 21.2578125 251.703125 C24.55338065 251.66208917 27.84881316 251.62521118 31.14453125 251.59863281 C34.323215 251.57076648 37.5012568 251.52486009 40.6796875 251.4765625 C41.64784393 251.47330963 42.61600037 251.47005676 43.61349487 251.46670532 C55.52827976 251.25602931 65.61425505 248.23102548 74.375 240 C77.8460872 236.36473976 80.86090285 232.39724423 83.88842773 228.39038086 C87.30827952 223.86603605 90.84608167 219.45160015 94.4375 215.0625 C98.96911022 209.51791829 103.43703404 203.93155156 107.83789062 198.28271484 C110.23798338 195.21160048 112.66899514 192.17229959 115.15234375 189.16796875 C120.93287652 182.17179857 126.50511445 175.09749458 131.75 167.6875 C132.52041626 166.60214966 132.52041626 166.60214966 133.30639648 165.49487305 C137.03897834 160.14775331 139.09696376 155.71610467 138 149 C134.79265131 140.25784604 128.37045587 133.2874175 122.4921875 126.23828125 C119.05516522 122.10564841 115.79771752 117.85387289 112.5625 113.5625 C107.56765629 106.96300882 102.3899927 100.54297223 97.10107422 94.17749023 C93.39445809 89.71140661 89.75792167 85.20063075 86.1875 80.625 C82.85199294 76.35979615 79.51499058 72.09712995 76.125 67.875 C75.44695312 67.02679688 74.76890625 66.17859375 74.0703125 65.3046875 C69.6682362 60.40426294 64.51572209 56.54323425 57.83203125 55.73919678 C55.40449056 55.65494835 52.99497546 55.66220218 50.56640625 55.70703125 C49.2495005 55.71339851 49.2495005 55.71339851 47.9059906 55.71989441 C45.1245042 55.7365771 42.34376436 55.77420915 39.5625 55.8125 C37.66732823 55.82756032 35.77214502 55.84124636 33.87695312 55.85351562 C29.25101803 55.8864464 24.62563523 55.93815572 20 56 C19.58975586 56.99064453 19.17951172 57.98128906 18.75683594 59.00195312 C3.82079714 95.06450231 -11.12849902 131.12189824 -26.29818726 167.08691406 C-31.0174631 178.27595861 -35.70934503 189.47599153 -40.375 200.6875 C-45.90918228 213.98229354 -51.445569 227.27614999 -57 240.5625 C-57.37557037 241.46092621 -57.75114075 242.35935242 -58.13809204 243.28500366 C-64.17515683 257.71816733 -70.29666745 272.1137544 -76.49414062 286.47875977 C-76.79255356 287.1713942 -77.09096649 287.86402863 -77.39842224 288.57765198 C-78.19618089 290.42856872 -78.9956085 292.27876587 -79.79516602 294.12890625 C-81.03983823 296.9936782 -81.03983823 296.9936782 -82 300 C-95.53 300 -109.06 300 -123 300 C-122.67 298.68 -122.34 297.36 -122 296 C-123.051875 296.0825 -124.10375 296.165 -125.1875 296.25 C-136.78088658 296.18855095 -147.78083505 290.69812974 -156.19140625 282.9921875 C-162.5836962 276.23496018 -167.863804 268.50797916 -173.32421875 261 C-176.78754609 256.2563688 -180.37117896 251.61766586 -184 247 C-188.77806138 240.91119025 -193.43307746 234.74870179 -198 228.5 C-202.55030495 222.27590306 -207.18326872 216.13230034 -211.9375 210.0625 C-217.00827072 203.57903437 -222.03559668 197.06538809 -227 190.5 C-227.61093506 189.69957275 -228.22187012 188.89914551 -228.85131836 188.07446289 C-239.12083489 174.43501829 -245.67017132 161.53679881 -244 144 C-241.69290966 129.66308147 -230.52605363 118.36211724 -221.83300781 107.33740234 C-218.93845241 103.64634302 -216.09315277 99.91821126 -213.25 96.1875 C-212.17585646 94.77989052 -211.10163935 93.37233718 -210.02734375 91.96484375 C-209.51671387 91.29565918 -209.00608398 90.62647461 -208.47998047 89.93701172 C-206.26381094 87.03646915 -204.03915532 84.14249694 -201.8125 81.25 C-200.60980469 79.68765625 -200.60980469 79.68765625 -199.3828125 78.09375 C-197.79427083 76.03125 -196.20572917 73.96875 -194.6171875 71.90625 C-193.41449219 70.34390625 -193.41449219 70.34390625 -192.1875 68.75 C-191.77959229 68.22011475 -191.37168457 67.69022949 -190.95141602 67.14428711 C-188.08517401 63.41811731 -185.23027955 59.68341519 -182.37866211 55.94604492 C-177.14806503 49.09397059 -171.90082373 42.25482247 -166.625 35.4375 C-166.06651367 34.71216064 -165.50802734 33.98682129 -164.93261719 33.23950195 C-153.9603652 19.09716231 -153.9603652 19.09716231 -147.625 15.1875 C-146.34496094 14.37345703 -146.34496094 14.37345703 -145.0390625 13.54296875 C-138.01964797 9.97912718 -131.64787803 8.55371034 -123.80834961 8.65942383 C-122.93896759 8.65898575 -122.06958557 8.65854767 -121.17385864 8.65809631 C-118.33311594 8.66016716 -115.49298187 8.68341677 -112.65234375 8.70703125 C-110.66980817 8.71263328 -108.68726841 8.71690051 -106.70472717 8.71989441 C-101.51136615 8.73129537 -96.31826072 8.76072134 -91.125 8.79400635 C-85.81579037 8.82481001 -80.50653905 8.83842168 -75.19726562 8.85351562 C-64.79806539 8.88559587 -54.39905403 8.9367343 -44 9 C-45.4088924 13.30880374 -46.99835147 17.40901614 -48.86328125 21.54296875 C-49.13714157 22.15207596 -49.41100189 22.76118317 -49.69316101 23.38874817 C-50.56356667 25.32289884 -51.43797142 27.25521059 -52.3125 29.1875 C-52.88763157 30.4640748 -53.46250337 31.74076667 -54.03710938 33.01757812 C-57.34100257 40.35281598 -60.66956621 47.67678277 -64 55 C-64.64622314 55.00364563 -65.29244629 55.00729126 -65.95825195 55.01104736 C-72.70739209 55.05298129 -79.4558591 55.12240357 -86.20458984 55.20751953 C-88.72047175 55.23567877 -91.2364413 55.25691828 -93.75244141 55.27099609 C-97.37708236 55.29249456 -101.00067517 55.3391837 -104.625 55.390625 C-105.74302002 55.39185364 -106.86104004 55.39308228 -108.01293945 55.39434814 C-116.97231583 55.56093687 -123.32689642 57.72728264 -130 64 C-131.94709494 66.3371004 -133.72448418 68.78114212 -135.5 71.25 C-139.71703506 76.99529015 -144.04191046 82.61517376 -148.5625 88.125 C-154.47477534 95.34131243 -160.26682265 102.64085596 -166 110 C-166.55333008 110.70946777 -167.10666016 111.41893555 -167.67675781 112.14990234 C-170.66337593 115.9800628 -173.64562858 119.81351197 -176.62109375 123.65234375 C-178.724043 126.36446416 -180.83945039 129.06553194 -182.97265625 131.75390625 C-191.85112788 142.41528182 -191.85112788 142.41528182 -194.56640625 155.59375 C-192.53663592 164.2167743 -185.18201978 171.36636086 -179.59375 177.9140625 C-176.57984246 181.46102682 -173.77630822 185.16054346 -170.95947266 188.86499023 C-167.04129798 193.99312268 -162.9708338 198.99035373 -158.88745117 203.98730469 C-155.37717825 208.28879178 -151.91696008 212.62411286 -148.5 217 C-146.66956211 219.33561854 -144.83595056 221.66871244 -143 224 C-142.1946582 225.02287109 -142.1946582 225.02287109 -141.37304688 226.06640625 C-139.67309157 228.21721078 -137.96283753 230.35944584 -136.25 232.5 C-135.73115234 233.15871094 -135.21230469 233.81742188 -134.67773438 234.49609375 C-127.93665326 242.87319328 -120.83568425 248.81968807 -109.9140625 250.46484375 C-107.27377861 250.71258247 -104.64959797 250.89925483 -102 251 C-101.86997086 250.26671478 -101.73994171 249.53342957 -101.60597229 248.77792358 C-101.04428861 246.20302969 -100.30379548 243.98504828 -99.30444336 241.55322266 C-98.95511246 240.69691757 -98.60578156 239.84061249 -98.24586487 238.95835876 C-97.8643779 238.036241 -97.48289093 237.11412323 -97.08984375 236.1640625 C-96.69099472 235.18993912 -96.29214569 234.21581573 -95.88121033 233.21217346 C-94.57084645 230.01470499 -93.25419287 226.81986683 -91.9375 223.625 C-91.02123743 221.39250209 -90.1053887 219.15983429 -89.18994141 216.92700195 C-86.8895182 211.31869585 -84.58423712 205.71240126 -82.27764893 200.10662842 C-80.43055478 195.61538277 -78.58793785 191.12230694 -76.74609375 186.62890625 C-74.48828005 181.12138957 -72.2293776 175.61432402 -69.96842957 170.10809326 C-65.68588888 159.67802263 -61.41536104 149.24306033 -57.14779663 138.80685425 C-42.16830479 102.17558248 -27.12531599 65.57132474 -12 29 C-11.4935495 27.77543091 -11.4935495 27.77543091 -10.97686768 26.52612305 C-7.31960785 17.6833791 -3.66020208 8.8415271 0 0 Z " fill="#1A6FD3" transform="translate(540,258)"/>
<path d="M0 0 C1.02825645 0.03400406 1.02825645 0.03400406 2.07728577 0.06869507 C3.14971275 0.07574966 3.14971275 0.07574966 4.24380493 0.08294678 C6.52392424 0.10424686 8.80169835 0.16078932 11.08119202 0.21713257 C12.61046679 0.23364776 14.13976662 0.24799376 15.66908264 0.26010132 C27.30180913 0.40011805 27.30180913 0.40011805 32.64369202 1.59213257 C33.73681702 1.67463257 34.82994202 1.75713257 35.95619202 1.84213257 C44.64790912 3.60993944 51.77051911 10.09391019 56.95619202 17.02963257 C57.8311086 18.18985173 58.70611518 19.35000303 59.58119202 20.51010132 C60.30435608 21.4756897 60.30435608 21.4756897 61.04212952 22.46078491 C64.1567211 26.6056606 67.31111261 30.72037609 70.45619202 34.84213257 C71.84180495 36.66099349 73.22722194 38.48000369 74.61244202 40.29916382 C75.29048889 41.18942261 75.96853577 42.0796814 76.66712952 42.99691772 C77.93024183 44.6553767 79.19327093 46.31389906 80.45619202 47.97250366 C86.83693532 56.34904196 93.26317591 64.68466286 99.78041077 72.95541382 C108.16258153 83.59511221 116.46967153 94.29147274 124.64369202 105.09213257 C125.55973206 106.29216919 125.55973206 106.29216919 126.49427795 107.51644897 C135.75190446 119.81324676 142.07141971 130.78658376 140.64369202 146.59213257 C138.39086844 162.21982762 128.58474389 173.60157354 119.16273499 185.64096069 C117.18410404 188.18246158 115.25423553 190.75838888 113.33119202 193.34213257 C109.2628949 198.78636198 105.14266759 204.18998861 101.01869202 209.59213257 C95.63118759 216.65083707 90.27530569 223.73175459 84.95619202 230.84213257 C78.73343724 239.15840275 72.4497598 247.42536456 66.1207428 255.66098022 C64.6905693 257.53084343 63.27268717 259.40935276 61.85853577 261.29135132 C52.14726357 274.18449223 43.17387658 282.88747075 26.64369202 285.59213257 C23.06678939 285.8525764 19.50840101 285.85613371 15.92323303 285.83505249 C14.8912529 285.83695084 13.85927277 285.83884918 12.79602051 285.84080505 C9.41313379 285.84448528 6.03046562 285.83385191 2.64759827 285.82260132 C0.28870672 285.82140835 -2.07018531 285.8209566 -4.42907715 285.82121277 C-9.35724385 285.81965292 -14.2853374 285.81139798 -19.21348572 285.79794312 C-25.54111143 285.78088862 -31.86865736 285.77713091 -38.19630337 285.7778883 C-43.05944586 285.77761701 -47.9225708 285.77214356 -52.78570747 285.76488686 C-55.12019277 285.76169874 -57.45468005 285.75973245 -59.7891674 285.75899315 C-63.04001672 285.75683481 -66.29077981 285.74810344 -69.54161072 285.73739624 C-70.99638321 285.73807602 -70.99638321 285.73807602 -72.48054504 285.73876953 C-73.80300987 285.73237206 -73.80300987 285.73237206 -75.15219116 285.72584534 C-75.92033866 285.72416949 -76.68848616 285.72249365 -77.47991085 285.72076702 C-79.35630798 285.59213257 -79.35630798 285.59213257 -81.35630798 284.59213257 C-78.84751614 276.72364905 -76.0868637 268.97125377 -72.35630798 261.59213257 C-71.34932882 259.44956549 -70.34996294 257.30341141 -69.35630798 255.15463257 C-68.84068298 254.04217163 -68.32505798 252.92971069 -67.79380798 251.78353882 C-66.89573484 249.78971882 -66.0347792 247.77826283 -65.23130798 245.74447632 C-64.35630798 243.59213257 -64.35630798 243.59213257 -63.35630798 242.59213257 C-61.8788777 242.51751488 -60.39797556 242.50886422 -58.91880798 242.52963257 C-57.57689392 242.54123413 -57.57689392 242.54123413 -56.20787048 242.55307007 C-54.30682882 242.57911174 -52.40578715 242.6051534 -50.50474548 242.63119507 C-49.16283142 242.64279663 -49.16283142 242.64279663 -47.79380798 242.65463257 C-46.55437439 242.67203491 -46.55437439 242.67203491 -45.28990173 242.68978882 C-43.34907241 242.80841022 -43.34907241 242.80841022 -42.35630798 241.59213257 C-40.94154404 241.48545272 -39.52162352 241.44594372 -38.10289001 241.43441772 C-37.19749481 241.42415558 -36.29209961 241.41389343 -35.35926819 241.40332031 C-34.37086945 241.39601898 -33.3824707 241.38871765 -32.36412048 241.38119507 C-30.27557141 241.35309428 -28.18702987 241.32442967 -26.09849548 241.29525757 C-22.80292734 241.25422174 -19.50749482 241.21734375 -16.21177673 241.19076538 C-13.03309299 241.16289905 -9.85505118 241.11699265 -6.67662048 241.06869507 C-5.70846405 241.0654422 -4.74030762 241.06218933 -3.74281311 241.05883789 C8.17197178 240.84816188 18.25794707 237.82315805 27.01869202 229.59213257 C30.48977922 225.95687232 33.50459487 221.98937679 36.53211975 217.98251343 C39.95197154 213.45816862 43.48977369 209.04373271 47.08119202 204.65463257 C51.61280224 199.11005086 56.08072606 193.52368413 60.48158264 187.87484741 C62.8816754 184.80373305 65.31268715 181.76443216 67.79603577 178.76010132 C73.57656854 171.76393114 79.14880646 164.68962715 84.39369202 157.27963257 C85.16410828 156.19428223 85.16410828 156.19428223 85.9500885 155.08700562 C89.68267035 149.73988588 91.74065578 145.30823724 90.64369202 138.59213257 C87.43634332 129.84997861 81.01414788 122.87955007 75.13587952 115.83041382 C71.69885724 111.69778098 68.44140954 107.44600546 65.20619202 103.15463257 C60.21134831 96.55514139 55.03368472 90.13510479 49.74476624 83.7696228 C46.03815011 79.30353918 42.40161369 74.79276332 38.83119202 70.21713257 C35.49568495 65.95192872 32.15868259 61.68926251 28.76869202 57.46713257 C28.09064514 56.61892944 27.41259827 55.77072632 26.71400452 54.89682007 C23.77066718 51.62027473 20.63812217 49.16669221 16.83119202 46.96713257 C15.74837952 46.28650757 15.74837952 46.28650757 14.64369202 45.59213257 C14.64369202 44.93213257 14.64369202 44.27213257 14.64369202 43.59213257 C6.45722471 42.44076895 -1.67140152 42.47798273 -9.91880798 42.52963257 C-11.32310326 42.53465891 -12.72740028 42.53921981 -14.13169861 42.54330444 C-17.53994702 42.55501664 -20.94810439 42.57141885 -24.35630798 42.59213257 C-22.0692065 35.27973888 -19.23804818 28.26644144 -16.22276306 21.22494507 C-15.41582223 19.33514013 -14.6213021 17.44040801 -13.82701111 15.54525757 C-13.31203064 14.33869507 -12.79705017 13.13213257 -12.26646423 11.88900757 C-11.57242493 10.25463745 -11.57242493 10.25463745 -10.86436462 8.58724976 C-8.12383648 3.14434878 -6.53185315 0.02889591 0 0 Z " fill="#1C7BDC" transform="translate(587.3563079833984,268.4078674316406)"/>
<path d="M0 0 C5.28 0 10.56 0 16 0 C18.28310998 5.51574476 20.56165473 11.03334406 22.8359375 16.55273438 C23.61071717 18.43118508 24.38675507 20.30911732 25.1640625 22.18652344 C26.27933467 24.88081616 27.39010973 27.57692408 28.5 30.2734375 C28.84998047 31.11619232 29.19996094 31.95894714 29.56054688 32.82723999 C29.88087891 33.60789825 30.20121094 34.38855652 30.53125 35.19287109 C30.81548828 35.88126068 31.09972656 36.56965027 31.39257812 37.27890015 C32 39 32 39 32 41 C32.66 41 33.32 41 34 41 C34.36867188 39.82308594 34.73734375 38.64617188 35.1171875 37.43359375 C37.42786815 30.50290944 40.31002376 23.79898921 43.125 17.0625 C43.68126072 15.72341989 44.23725229 14.38422794 44.79296875 13.04492188 C48.81527446 3.36945107 48.81527446 3.36945107 50 1 C54.95 1 59.9 1 65 1 C65 20.8 65 40.6 65 61 C61.37 61 57.74 61 54 61 C53.67 48.13 53.34 35.26 53 22 C48.85492289 31.60196869 48.85492289 31.60196869 44.71362305 41.20556641 C44.19324463 42.40874512 43.67286621 43.61192383 43.13671875 44.8515625 C42.87137329 45.46862061 42.60602783 46.08567871 42.3326416 46.72143555 C40.67525183 50.54688265 38.8961013 54.28731933 37 58 C34.03 58 31.06 58 28 58 C26.18431017 53.81948674 24.36956077 49.63856698 22.55566406 45.45727539 C21.93905762 44.03626604 21.32219882 42.61536617 20.70507812 41.19458008 C19.81573444 39.14693795 18.92731284 37.09889786 18.0390625 35.05078125 C17.62800766 34.10517082 17.62800766 34.10517082 17.20864868 33.14045715 C15.75145516 29.77786562 14.36158661 26.40396652 13 23 C12.67 35.54 12.34 48.08 12 61 C8.04 61 4.08 61 0 61 C0 40.87 0 20.74 0 0 Z " fill="#F9F9FA" transform="translate(246,654)"/>
<path d="M0 0 C29 0 29 0 38 4 C42.46553507 8.58003597 44.28815343 12.49619972 44.3125 18.875 C44.18568439 24.68033667 43.5739833 28.52897603 39.2421875 32.6875 C37.53262787 34.18249952 35.79679025 35.61179493 34 37 C36.00823564 42.78233367 39.38566133 47.81974741 42.54296875 53.02539062 C42.98511719 53.76337891 43.42726563 54.50136719 43.8828125 55.26171875 C44.28902832 55.93162842 44.69524414 56.60153809 45.11376953 57.29174805 C46 59 46 59 46 61 C41.71 61 37.42 61 33 61 C31.16155559 57.71109457 29.3290654 54.41911532 27.5 51.125 C26.97535156 50.18785156 26.45070313 49.25070312 25.91015625 48.28515625 C25.16572266 46.94130859 25.16572266 46.94130859 24.40625 45.5703125 C23.94541016 44.74289551 23.48457031 43.91547852 23.00976562 43.06298828 C22 41 22 41 22 39 C18.7 39 15.4 39 12 39 C12 46.26 12 53.52 12 61 C8.04 61 4.08 61 0 61 C0 40.87 0 20.74 0 0 Z " fill="#F8F8F9" transform="translate(385,654)"/>
<path d="M0 0 C4.62 0 9.24 0 14 0 C17.27595503 3.44540098 18.81000015 5.89025561 21 10 C22.44423394 12.33803198 23.9267584 14.64925051 25.41162109 16.96166992 C26.93642107 19.33839857 28.44033692 21.72688254 29.9375 24.12109375 C33.26891507 29.42841189 36.63580124 34.71340195 40 40 C40.33 26.8 40.66 13.6 41 0 C44.63 0 48.26 0 52 0 C52 20.13 52 40.26 52 61 C40 61 40 61 37.34350586 58.97485352 C36.53731812 57.56610962 36.53731812 57.56610962 35.71484375 56.12890625 C35.08126953 55.07767578 34.44769531 54.02644531 33.79492188 52.94335938 C33.18197266 51.82767578 32.56902344 50.71199219 31.9375 49.5625 C30.67716079 47.41715771 29.4154107 45.27264373 28.15234375 43.12890625 C26.78207031 40.77636719 25.41179687 38.42382812 24 36 C20.37 30.39 16.74 24.78 13 19 C12.67 32.86 12.34 46.72 12 61 C8.04 61 4.08 61 0 61 C0 40.87 0 20.74 0 0 Z " fill="#F8F8F9" transform="translate(444,654)"/>
<path d="M0 0 C4.95 0 9.9 0 15 0 C19.54516152 10.47090465 23.3917528 21.15952861 27.21313477 31.91162109 C28.32069978 35.02303514 29.43847457 38.13066359 30.55664062 41.23828125 C31.26364327 43.22113234 31.97004553 45.20419763 32.67578125 47.1875 C33.01007645 48.11353027 33.34437164 49.03956055 33.688797 49.99365234 C34.14508736 51.28650146 34.14508736 51.28650146 34.6105957 52.60546875 C34.87975296 53.35981201 35.14891022 54.11415527 35.42622375 54.89135742 C36 57 36 57 36 61 C32.04 61 28.08 61 24 61 C23.32968281 59.0429132 22.66385317 57.08428887 22 55.125 C21.62875 54.03445313 21.2575 52.94390625 20.875 51.8203125 C20 49 20 49 20 47 C11.75 47 3.5 47 -5 47 C-5.495 49.475 -5.495 49.475 -6 52 C-6.92879606 55.02700893 -7.9716621 58.00440698 -9 61 C-12.96 61 -16.92 61 -21 61 C-20.42751035 54.69393982 -18.41666967 49.31262327 -16.125 43.4375 C-15.31515412 41.32209352 -14.50662706 39.20618181 -13.69921875 37.08984375 C-13.26657715 35.9591748 -12.83393555 34.82850586 -12.38818359 33.66357422 C-9.84917589 26.96284442 -7.39685205 20.23028128 -4.9375 13.5 C-4.44359539 12.15028244 -3.9496192 10.80059106 -3.45556641 9.45092773 C-2.30287927 6.3009227 -1.15131258 3.15050769 0 0 Z " fill="#F9F9FA" transform="translate(559,654)"/>
<path d="M0 0 C3.96 0 7.92 0 12 0 C12 8.25 12 16.5 12 25 C20.91 25 29.82 25 39 25 C39 16.75 39 8.5 39 0 C42.96 0 46.92 0 51 0 C51 20.13 51 40.26 51 61 C47.04 61 43.08 61 39 61 C39 52.75 39 44.5 39 36 C30.09 36 21.18 36 12 36 C12 44.25 12 52.5 12 61 C8.04 61 4.08 61 0 61 C0 40.87 0 20.74 0 0 Z " fill="#FBFAFB" transform="translate(726,654)"/>
<path d="M0 0 C13.53 0 27.06 0 41 0 C41 3.63 41 7.26 41 11 C31.43 11 21.86 11 12 11 C12 15.95 12 20.9 12 26 C20.91 26 29.82 26 39 26 C39 29.3 39 32.6 39 36 C30.09 36 21.18 36 12 36 C12 40.62 12 45.24 12 50 C21.9 50 31.8 50 42 50 C42 53.63 42 57.26 42 61 C28.14 61 14.28 61 0 61 C0 40.87 0 20.74 0 0 Z " fill="#F7F7F9" transform="translate(328,654)"/>
<path d="M0 0 C3.96 0 7.92 0 12 0 C12.0093457 1.27117676 12.01869141 2.54235352 12.02832031 3.85205078 C12.0682865 8.58238362 12.13406414 13.31207062 12.20751953 18.04199219 C12.23569066 20.08650395 12.25692435 22.13112384 12.27099609 24.17578125 C12.29247887 27.12035322 12.3391569 30.06363041 12.390625 33.0078125 C12.39185364 33.9174173 12.39308228 34.82702209 12.39434814 35.76419067 C12.52477938 41.45566892 13.27834114 44.62804663 17 49 C20.8192259 51.50977702 24.47291125 51.15541394 28.84375 50.55078125 C31.93988313 49.75992116 33.79926998 48.26950283 36 46 C37.15291684 43.69416631 37.15397338 42.30133113 37.20532227 39.73388672 C37.22526749 38.85312469 37.24521271 37.97236267 37.26576233 37.06491089 C37.29083107 35.63672531 37.29083107 35.63672531 37.31640625 34.1796875 C37.33718735 33.20589142 37.35796844 32.23209534 37.37937927 31.22879028 C37.44488598 28.11093353 37.50376497 24.99299097 37.5625 21.875 C37.60568415 19.76431396 37.6492984 17.65363667 37.69335938 15.54296875 C37.80056853 10.36206764 37.90183283 5.18108001 38 0 C41.96 0 45.92 0 50 0 C50.12435721 6.2255133 50.21469608 12.45029064 50.2746582 18.67675781 C50.29967575 20.79114389 50.33370092 22.90544459 50.37719727 25.01953125 C50.43841332 28.07313192 50.46633792 31.12558139 50.48828125 34.1796875 C50.51408768 35.11239471 50.5398941 36.04510193 50.56648254 37.006073 C50.56940625 43.97500937 48.77085557 49.13238443 45 55 C42.68359375 57.25390625 42.68359375 57.25390625 40.4375 58.5625 C39.32181641 59.24505859 39.32181641 59.24505859 38.18359375 59.94140625 C31.11127842 63.37002424 21.36171983 63.33907577 13.93359375 61.05859375 C6.84356897 57.68792623 3.35182132 53.75768818 0.63290405 46.33056641 C-0.51157316 42.11621491 -0.36589973 37.93251464 -0.29296875 33.59375 C-0.28872391 32.6284436 -0.28447906 31.66313721 -0.28010559 30.6685791 C-0.26343097 27.6120917 -0.22579992 24.55628515 -0.1875 21.5 C-0.17243866 19.41667625 -0.1587528 17.33334207 -0.14648438 15.25 C-0.11356424 10.16640785 -0.06186016 5.08331901 0 0 Z " fill="#F9F9FB" transform="translate(604,654)"/>
<path d="M0 0 C15.51 0 31.02 0 47 0 C47 3.63 47 7.26 47 11 C41.06 11 35.12 11 29 11 C29 27.5 29 44 29 61 C25.37 61 21.74 61 18 61 C18 44.5 18 28 18 11 C12.06 11 6.12 11 0 11 C0 7.37 0 3.74 0 0 Z " fill="#F9F9FA" transform="translate(667,654)"/>
<path d="M0 0 C0.495 1.485 0.495 1.485 1 3 C-0.12356444 4.46403851 -1.26690672 5.91641325 -2.49609375 7.29296875 C-3.97504551 8.97167503 -5.30097411 10.69731753 -6.625 12.5 C-10.08263758 17.16463443 -13.69144018 21.70789043 -17.30517578 26.25195312 C-19.89243258 29.46764333 -19.89243258 29.46764333 -22 33 C-22.66 33 -23.32 33 -24 33 C-24.0825 33.53625 -24.165 34.0725 -24.25 34.625 C-25.51957176 38.64531056 -27.85588883 41.89402587 -30.875 44.8125 C-33.55527459 47.5716062 -35.47611572 50.64015019 -37.53515625 53.87890625 C-38.88595457 55.83486222 -40.30806359 57.34608463 -42 59 C-43.17574711 61.09989652 -43.17574711 61.09989652 -44 63 C-44.66 63 -45.32 63 -46 63 C-46.226875 63.515625 -46.45375 64.03125 -46.6875 64.5625 C-47.84443019 66.71108465 -49.05792999 68.34971938 -50.5625 70.25 C-53.42493426 74.13353655 -53.60434373 77.25212481 -54 82 C-54.66 82.99 -55.32 83.98 -56 85 C-56.20497101 87.80127043 -56.26272884 89.47454232 -55 92 C-55.2784375 93.36125 -55.2784375 93.36125 -55.5625 94.75 C-56.07211255 98.53569319 -55.39396051 100.47841556 -54 104 C-52.73147698 107.65633105 -51.67296039 111.1865578 -51 115 C-50.34 115 -49.68 115 -49 115 C-48.54625 115.969375 -48.0925 116.93875 -47.625 117.9375 C-46.34213779 121.07079582 -46.34213779 121.07079582 -44 122 C-43.27306096 123.97888961 -42.60183749 125.97954558 -42 128 C-40.68 128 -39.36 128 -38 128 C-37.7525 128.9075 -37.505 129.815 -37.25 130.75 C-35.93617132 134.16595457 -34.62230988 135.54158448 -32 138 C-31.33333333 139.33333333 -30.66666667 140.66666667 -30 142 C-28.515 142.99 -28.515 142.99 -27 144 C-26.30062468 145.31647119 -25.63270867 146.65022151 -25 148 C-24.01 148.99 -24.01 148.99 -23 150 C-23 150.99 -23 151.98 -23 153 C-22.34 153 -21.68 153 -21 153 C-19.7109375 154.4609375 -19.7109375 154.4609375 -18.375 156.375 C-17.92898438 157.00148438 -17.48296875 157.62796875 -17.0234375 158.2734375 C-16 160 -16 160 -16 162 C-15.34 162 -14.68 162 -14 162 C-10 167.41176471 -10 167.41176471 -10 170 C-9.34 170 -8.68 170 -8 170 C-7.06130206 171.33290751 -6.13539328 172.67602016 -5.26220703 174.05273438 C-2.65845899 178.06965786 0.23366066 181.89008837 3.0625 185.75 C3.68705078 186.61238281 4.31160156 187.47476563 4.95507812 188.36328125 C5.55900391 189.18699219 6.16292969 190.01070312 6.78515625 190.859375 C7.33051025 191.60670898 7.87586426 192.35404297 8.43774414 193.12402344 C10.04600225 195.23607359 10.04600225 195.23607359 13 197 C14.02691816 198.98631294 15.02333318 200.98850257 16 203 C17.3560412 204.98609476 18.75211639 206.94546793 20.1875 208.875 C20.90292969 209.84179688 21.61835938 210.80859375 22.35546875 211.8046875 C22.89816406 212.52914062 23.44085938 213.25359375 24 214 C23.67 214.66 23.34 215.32 23 216 C22.02083333 214.71484375 21.04166667 213.4296875 20.0625 212.14453125 C19.42280273 211.30494873 18.78310547 210.46536621 18.12402344 209.6003418 C16.68970044 207.71775164 15.25545761 205.8351004 13.82128906 203.95239258 C10.14831985 199.13092091 6.47426058 194.31029184 2.796875 189.4921875 C-3.64557717 181.04883458 -10.07085559 172.59436177 -16.42944336 164.08764648 C-19.85259904 159.51407193 -23.30588052 154.96426995 -26.7722168 150.42333984 C-28.81203539 147.75060876 -30.84753447 145.07462714 -32.8828125 142.3984375 C-35.6315894 138.78617048 -38.39958381 135.18976009 -41.1796875 131.6015625 C-42.51591086 129.85959424 -43.85185869 128.11741459 -45.1875 126.375 C-45.79891846 125.59479492 -46.41033691 124.81458984 -47.0402832 124.01074219 C-56.44643345 111.66836368 -60.07907844 99.4029745 -59 84 C-56.75270474 69.67860021 -45.50442289 58.33468466 -36.83300781 47.33740234 C-33.93845241 43.64634302 -31.09315277 39.91821126 -28.25 36.1875 C-27.17585646 34.77989052 -26.10163935 33.37233718 -25.02734375 31.96484375 C-24.51671387 31.29565918 -24.00608398 30.62647461 -23.47998047 29.93701172 C-20.47242678 26.00069846 -17.44925855 22.07643131 -14.42578125 18.15234375 C-12.69040677 15.89719527 -10.95859279 13.63959304 -9.23046875 11.37890625 C-8.77373779 10.78239258 -8.31700684 10.18587891 -7.84643555 9.57128906 C-6.97042921 8.42700082 -6.09553183 7.28186248 -5.22192383 6.13574219 C-3.56374291 3.97198099 -1.93023333 1.93023333 0 0 Z " fill="#22A0F1" transform="translate(355,318)"/>
<path d="M0 0 C29.37 0 58.74 0 89 0 C87.54117748 4.37646757 86.02224731 8.36335525 84.13671875 12.54296875 C83.86285843 13.15207596 83.58899811 13.76118317 83.30683899 14.38874817 C82.43643333 16.32289884 81.56202858 18.25521059 80.6875 20.1875 C80.11236843 21.4640748 79.53749663 22.74076667 78.96289062 24.01757812 C75.65898632 31.35284063 72.32905203 38.67608552 69 46 C51.18 46.33 33.36 46.66 15 47 C14.67 46.34 14.34 45.68 14 45 C20.7211857 43.26646795 26.79874738 42.72848008 33.72265625 42.8046875 C34.70874374 42.8075174 35.69483124 42.81034729 36.71080017 42.81326294 C39.82816237 42.82436495 42.94522617 42.84945055 46.0625 42.875 C48.18944895 42.88504271 50.31640244 42.89416629 52.44335938 42.90234375 C57.6290194 42.92427152 62.81445929 42.95873154 68 43 C69.63236282 39.31571664 71.25455012 35.62703671 72.875 31.9375 C73.33519531 30.89916016 73.79539062 29.86082031 74.26953125 28.79101562 C76.55226326 23.58043169 78.63582918 18.52724383 80 13 C80.66 13 81.32 13 82 13 C82.28875 11.9275 82.5775 10.855 82.875 9.75 C83.73600459 6.8799847 84.62436288 4.61255453 86 2 C85.26909653 2.01252808 84.53819305 2.02505615 83.78514099 2.03796387 C76.82909703 2.15696574 69.87303294 2.27472296 62.91694546 2.39115143 C59.34248647 2.45102147 55.76803632 2.51133931 52.19360352 2.57275391 C48.73117421 2.6322264 45.26872547 2.69042688 41.80626106 2.74781799 C39.87078056 2.78020927 37.93532112 2.81385097 35.99986267 2.84753418 C27.33195032 2.98976305 18.66880451 3.02414909 10 3 C10 2.34 10 1.68 10 1 C6.7 1 3.4 1 0 1 C0 0.67 0 0.34 0 0 Z " fill="#143FAA" transform="translate(407,267)"/>
<path d="M0 0 C3.5578125 -0.12375 3.5578125 -0.12375 7.1875 -0.25 C7.92508545 -0.28641602 8.6626709 -0.32283203 9.42260742 -0.36035156 C12.90407673 -0.41865031 14.92394689 -0.04391941 17.94921875 1.703125 C20.32476647 4.36373845 20.67865338 5.48033842 20.625 9 C20.63789063 9.845625 20.65078125 10.69125 20.6640625 11.5625 C19.68601432 15.15251214 18.1926858 16.15627681 15 18 C12.20704934 18.28942494 9.94329617 18.38605897 7.1875 18.25 C4.815625 18.1675 2.44375 18.085 0 18 C0 12.06 0 6.12 0 0 Z " fill="#070729" transform="translate(397,665)"/>
<path d="M0 0 C4.83837397 0.09416456 9.67628421 0.20039156 14.51416016 0.31738281 C16.15699175 0.35546062 17.79990071 0.39034888 19.44287109 0.421875 C21.8163604 0.46799015 24.1893267 0.52590261 26.5625 0.5859375 C27.28679199 0.59748871 28.01108398 0.60903992 28.75732422 0.62094116 C33.7638078 0.76302678 38.17522022 1.64659229 43 3 C42.01 3.99 41.02 4.98 40 6 C39.23997681 5.51974365 39.23997681 5.51974365 38.46459961 5.02978516 C35.18848904 3.66092588 32.06516403 3.59884209 28.56640625 3.5234375 C27.85145493 3.50729401 27.1365036 3.49115051 26.39988708 3.47451782 C24.89128189 3.44692872 23.38255428 3.42544306 21.8737793 3.40966797 C20.33434353 3.38657725 18.79507115 3.34558663 17.2565918 3.28662109 C8.62400436 2.61529121 8.62400436 2.61529121 0.93676758 5.60766602 C-0.42017854 7.71024211 -1.241965 9.62046933 -2 12 C-2.45246094 13.04542969 -2.90492188 14.09085937 -3.37109375 15.16796875 C-3.72300781 16.16441406 -4.07492187 17.16085937 -4.4375 18.1875 C-6.54577231 23.91375381 -8.96122883 29.41535392 -11.5703125 34.9296875 C-13.12066339 38.25912958 -14.56766226 41.61832688 -16 45 C-15.1028125 44.9592334 -14.205625 44.9184668 -13.28125 44.87646484 C-9.91937446 44.72929596 -6.55739953 44.5926557 -3.19482422 44.46289062 C-1.74575896 44.40486354 -0.29685012 44.3427703 1.15185547 44.27636719 C15.97156783 43.60227965 15.97156783 43.60227965 23 46 C23 46.66 23 47.32 23 48 C9.14 47.67 -4.72 47.34 -19 47 C-13.25364008 32.0594642 -13.25364008 32.0594642 -10.44921875 25.29296875 C-10.14554886 24.55669754 -9.84187897 23.82042633 -9.52900696 23.06184387 C-8.58328705 20.76979433 -7.63544504 18.47863003 -6.6875 16.1875 C-6.03566459 14.60878287 -5.38397101 13.03000717 -4.73242188 11.45117188 C-3.1565773 7.63343943 -1.57883256 3.81649767 0 0 Z " fill="#0C2071" transform="translate(579,266)"/>
<path d="M0 0 C7.59 0 15.18 0 23 0 C22.67 0.66 22.34 1.32 22 2 C15.4 2 8.8 2 2 2 C1.34 3.65 0.68 5.3 0 7 C-0.98780477 9.19303397 -1.98854007 11.3802752 -3 13.5625 C-3.7734375 15.23505859 -3.7734375 15.23505859 -4.5625 16.94140625 C-5.35317977 18.62374935 -6.15294857 20.30228418 -6.9921875 21.9609375 C-8.46995474 24.95083865 -9.7974174 28.00397837 -11.125 31.0625 C-11.40214844 31.68705078 -11.67929687 32.31160156 -11.96484375 32.95507812 C-13.20452048 35.81610545 -14 37.84655019 -14 41 C-14.66 41 -15.32 41 -16 41 C-16 41.66 -16 42.32 -16 43 C17.99 43.33 51.98 43.66 87 44 C87 44.33 87 44.66 87 45 C52.35 45 17.7 45 -18 45 C-17.16543459 39.99260756 -16.19820511 36.7115184 -14.19921875 32.16796875 C-13.92157181 31.53192215 -13.64392487 30.89587555 -13.35786438 30.24055481 C-12.47407069 28.2200239 -11.58096219 26.20377132 -10.6875 24.1875 C-10.0989919 22.84597383 -9.51109594 21.50417896 -8.92382812 20.16210938 C-5.97365952 13.43053648 -2.98498464 6.71621544 0 0 Z " fill="#0A1848" transform="translate(522,510)"/>
<path d="M0 0 C2.70702609 1.35351305 2.75142894 2.57501207 3.7265625 5.40234375 C4.0359375 6.29244141 4.3453125 7.18253906 4.6640625 8.09960938 C4.98117187 9.03611328 5.29828125 9.97261719 5.625 10.9375 C5.94984375 11.87013672 6.2746875 12.80277344 6.609375 13.76367188 C9 20.70954241 9 20.70954241 9 23 C3.39 23 -2.22 23 -8 23 C-5.36 15.41 -2.72 7.82 0 0 Z " fill="#070831" transform="translate(566,667)"/>
<path d="M0 0 C10.96837495 10.60147509 20.82326607 23.97086 21.3125 39.6875 C20.97726304 54.64279316 14.49807582 65.52310774 5.8125 77.25 C5.39669678 77.82355225 4.98089355 78.39710449 4.55249023 78.98803711 C3.33203125 80.578125 3.33203125 80.578125 1 83 C-0.32 83 -1.64 83 -3 83 C-2.21625 82.2575 -1.4325 81.515 -0.625 80.75 C1.56504531 78.45566682 2.82731386 76.87841142 4 74 C4.66 74 5.32 74 6 74 C6 73.01 6 72.02 6 71 C6.97753644 69.97803008 7.9805881 68.98020375 9 68 C10.17574711 65.90010348 10.17574711 65.90010348 11 64 C11.66 64 12.32 64 13 64 C13.33 61.69 13.66 59.38 14 57 C14.66 57 15.32 57 16 57 C19.08073523 46.40838136 18.83905494 34.09763734 14.71875 23.796875 C13.95603951 21.89009877 13.45999466 19.99920755 13 18 C12.34 18 11.68 18 11 18 C8.9909783 15.21329248 7.21242392 12.38790454 5.5625 9.375 C3.74200754 6.60785147 1.66155469 4.94221559 -1 3 C-0.67 2.01 -0.34 1.02 0 0 Z " fill="#20A1E8" transform="translate(707,369)"/>
<path d="M0 0 C0.495 1.485 0.495 1.485 1 3 C-0.12356444 4.46403851 -1.26690672 5.91641325 -2.49609375 7.29296875 C-3.97504551 8.97167503 -5.30097411 10.69731753 -6.625 12.5 C-10.08263758 17.16463443 -13.69144018 21.70789043 -17.30517578 26.25195312 C-19.89243258 29.46764333 -19.89243258 29.46764333 -22 33 C-22.66 33 -23.32 33 -24 33 C-24.0825 33.53625 -24.165 34.0725 -24.25 34.625 C-25.51957176 38.64531056 -27.85588883 41.89402587 -30.875 44.8125 C-33.55527459 47.5716062 -35.47611572 50.64015019 -37.53515625 53.87890625 C-39.49497066 56.71671752 -40.83499529 58.63385566 -44.1875 59.6875 C-45.0846875 59.8421875 -45.0846875 59.8421875 -46 60 C-42.05558357 53.61627341 -37.51675529 47.81613793 -32.80322266 41.99707031 C-29.14328473 37.46486766 -25.59995751 32.86278123 -22.125 28.1875 C-17.6070544 22.11500059 -13.01899227 16.10173561 -8.375 10.125 C-7.77059082 9.34535889 -7.16618164 8.56571777 -6.54345703 7.76245117 C-5.97997559 7.03904541 -5.41649414 6.31563965 -4.8359375 5.5703125 C-4.33626465 4.92852051 -3.8365918 4.28672852 -3.32177734 3.62548828 C-2 2 -2 2 0 0 Z " fill="#1F8EEB" transform="translate(355,318)"/>
<path d="M0 0 C0 3.68051427 -0.81409438 4.46359985 -3 7.375 C-3.73089844 8.35339844 -4.46179688 9.33179688 -5.21484375 10.33984375 C-6.14216947 11.56070147 -7.07067466 12.78066371 -8 14 C-8.56348145 14.74137207 -9.12696289 15.48274414 -9.70751953 16.24658203 C-12.3464941 19.71738467 -14.98814707 23.18610057 -17.63598633 26.65014648 C-23.15457317 33.8715823 -28.61555794 41.13456829 -34.03930664 48.42749023 C-37.24681643 52.72545512 -40.52098775 56.91822104 -44 61 C-44.33 60.34 -44.66 59.68 -45 59 C-44.13375 57.9790625 -44.13375 57.9790625 -43.25 56.9375 C-41.57229567 54.74716379 -40.29805219 52.82756436 -39 50.4375 C-37.21481967 47.3692213 -35.51750359 45.43069313 -33 43 C-32.67 42.01 -32.34 41.02 -32 40 C-31.34 40 -30.68 40 -30 40 C-30 39.01 -30 38.02 -30 37 C-29.34 37 -28.68 37 -28 37 C-28 36.34 -28 35.68 -28 35 C-27.01 34.34 -26.02 33.68 -25 33 C-24.690625 32.01 -24.38125 31.02 -24.0625 30 C-23 27 -23 27 -20.9375 25.8125 C-20.298125 25.544375 -19.65875 25.27625 -19 25 C-18.67 24.01 -18.34 23.02 -18 22 C-16 20 -16 20 -14 19 C-13.34444881 16.47266765 -13.34444881 16.47266765 -13 14 C-12.34 14 -11.68 14 -11 14 C-10.443125 12.96875 -9.88625 11.9375 -9.3125 10.875 C-6.9862406 6.80197642 -4.29257998 2.14628999 0 0 Z " fill="#25B1F5" transform="translate(704,454)"/>
<path d="M0 0 C1.66666667 1.66666667 3.33333333 3.33333333 5 5 C5.721875 5.70125 6.44375 6.4025 7.1875 7.125 C9 9 9 9 11 12 C12.43881732 13.86935146 13.89957969 15.7219009 15.375 17.5625 C16.14585937 18.53316406 16.91671875 19.50382812 17.7109375 20.50390625 C19.84263958 22.82840732 21.25387587 23.66355292 24 25 C24.75 28.125 24.75 28.125 25 31 C25.66 31 26.32 31 27 31 C27.268125 31.61875 27.53625 32.2375 27.8125 32.875 C28.95556848 35.2995233 28.95556848 35.2995233 32 37 C32 37.99 32 38.98 32 40 C32.66 40 33.32 40 34 40 C34 40.99 34 41.98 34 43 C34.99 43.33 35.98 43.66 37 44 C37 44.99 37 45.98 37 47 C37.63550781 47.23976563 38.27101563 47.47953125 38.92578125 47.7265625 C41 49 41 49 41.79296875 51.0234375 C41.98826172 52.18746094 41.98826172 52.18746094 42.1875 53.375 C42.32542969 54.14585937 42.46335937 54.91671875 42.60546875 55.7109375 C42.73566406 56.46632813 42.86585938 57.22171875 43 58 C43.24363281 58.69351563 43.48726562 59.38703125 43.73828125 60.1015625 C43.82464844 60.72804688 43.91101563 61.35453125 44 62 C42.5625 63.75 42.5625 63.75 41 65 C40.95875 63.741875 40.9175 62.48375 40.875 61.1875 C39.51466732 49.95603527 31.48528432 41.62508222 24.515625 33.265625 C20.37247349 28.28370421 16.4652849 23.13220705 12.55371094 17.96801758 C8.90002554 13.15215407 5.15943833 8.43289184 1.29296875 3.78515625 C0 2 0 2 0 0 Z " fill="#1F8EED" transform="translate(638,351)"/>
<path d="M0 0 C0.66 0.99 1.32 1.98 2 3 C0.43528652 6.84066037 -2.06034127 9.13033315 -5 12 C-7.24863521 14.56986881 -8.829952 16.55987576 -10.0625 19.75 C-10.371875 20.4925 -10.68125 21.235 -11 22 C-11.99 22.33 -12.98 22.66 -14 23 C-14 23.99 -14 24.98 -14 26 C-14.99 26.66 -15.98 27.32 -17 28 C-17 28.66 -17 29.32 -17 30 C-17.639375 30.226875 -18.27875 30.45375 -18.9375 30.6875 C-19.618125 31.120625 -20.29875 31.55375 -21 32 C-21.12375 32.804375 -21.2475 33.60875 -21.375 34.4375 C-21.58125 35.283125 -21.7875 36.12875 -22 37 C-24.9375 38.75 -24.9375 38.75 -28 40 C-28.99 40.495 -28.99 40.495 -30 41 C-28.56041677 36.61762233 -26.36625369 33.86555534 -23.3125 30.4375 C-18.23573852 24.62430814 -13.55263975 18.55947634 -8.9375 12.375 C-8.28241455 11.4977124 -7.6273291 10.6204248 -6.95239258 9.71655273 C-4.57056944 6.51237776 -2.21502451 3.32253676 0 0 Z " fill="#229FF4" transform="translate(678,417)"/>
<path d="M0 0 C0.99113539 2.97340617 0.9426294 4.02085527 0.625 7 C0.56155013 16.81886661 9.3826122 24.8595216 15.375 31.875 C18.97919003 36.11585833 22.31432486 40.55839873 25.67578125 44.9921875 C27.34967996 47.15840936 29.03810161 49.16181586 30.85546875 51.1953125 C31.56316406 52.12085938 32.27085937 53.04640625 33 54 C32.67 54.99 32.34 55.98 32 57 C31.64695801 56.5560791 31.29391602 56.1121582 30.93017578 55.65478516 C29.32973043 53.64383425 27.72738865 51.6344027 26.125 49.625 C25.56941406 48.92632812 25.01382812 48.22765625 24.44140625 47.5078125 C23.63896484 46.50234375 23.63896484 46.50234375 22.8203125 45.4765625 C22.08192139 44.549646 22.08192139 44.549646 21.32861328 43.60400391 C19.9447516 41.88242176 19.9447516 41.88242176 18 40 C17.375 37.875 17.375 37.875 17 36 C16.071875 35.9071875 16.071875 35.9071875 15.125 35.8125 C14.42375 35.544375 13.7225 35.27625 13 35 C12.31867549 33.33927151 11.65257873 31.672233 11 30 C8.98264795 28.65589738 8.98264795 28.65589738 7 28 C7 26.68 7 25.36 7 24 C6.34 24 5.68 24 5 24 C0.39063935 16.21176994 -3.13690788 10.22036176 -1 1 C-0.67 0.67 -0.34 0.34 0 0 Z " fill="#208EEA" transform="translate(345,404)"/>
<path d="M0 0 C0.66 0.33 1.32 0.66 2 1 C1.44514063 4.568054 0.33214619 5.88615815 -2.5 8.0625 C-5.16652766 10.1225019 -5.89633434 10.68900302 -7 14 C-8.66666667 15.66666667 -10.33333333 17.33333333 -12 19 C-12.91653147 20.25598757 -13.8124865 21.52724279 -14.6875 22.8125 C-15.450625 23.864375 -16.21375 24.91625 -17 26 C-17.66 26 -18.32 26 -19 26 C-19 26.99 -19 27.98 -19 29 C-20.31266518 30.35368596 -21.64567325 31.68799596 -23 33 C-23 33.66 -23 34.32 -23 35 C-24.96147874 36.38938077 -26.96166576 37.7260411 -29 39 C-29 34.86562713 -26.81625269 32.87727718 -24.3125 29.8125 C-23.82571777 29.20535156 -23.33893555 28.59820312 -22.83740234 27.97265625 C-21.23250143 25.97553642 -19.61673822 23.98754541 -18 22 C-16.84994745 20.57707581 -15.70021098 19.1538961 -14.55078125 17.73046875 C-9.74126316 11.78594512 -4.90587439 5.86532583 0 0 Z " fill="#2196F0" transform="translate(646,459)"/>
<path d="M0 0 C3.96 0.33 7.92 0.66 12 1 C11.28427234 3.86291063 10.55635677 6.29181159 9.46875 8.9921875 C9.15679687 9.76981445 8.84484375 10.54744141 8.5234375 11.34863281 C8.18570312 12.18233398 7.84796875 13.01603516 7.5 13.875 C7.15195312 14.73963867 6.80390625 15.60427734 6.4453125 16.49511719 C2.33783838 26.68005079 -1.82833665 36.8412272 -6 47 C-8.97 46.67 -11.94 46.34 -15 46 C-15 45.67 -15 45.34 -15 45 C-13.88625 44.855625 -12.7725 44.71125 -11.625 44.5625 C-8.17857953 44.21627965 -8.17857953 44.21627965 -6 43 C-5.28474071 41.12551121 -5.28474071 41.12551121 -4.7265625 38.80859375 C-2.8019838 32.00962609 -0.08495152 25.57979227 2.625 19.0625 C3.61791895 16.65785398 4.61014078 14.25291996 5.6015625 11.84765625 C6.25632568 10.2699646 6.25632568 10.2699646 6.92431641 8.66040039 C7.67763711 6.7972738 8.36448975 4.90653075 9 3 C6.03 2.67 3.06 2.34 0 2 C0 1.34 0 0.68 0 0 Z " fill="#143F92" transform="translate(425,508)"/>
<path d="M0 0 C7.59 0 15.18 0 23 0 C22.67 0.66 22.34 1.32 22 2 C15.4 2 8.8 2 2 2 C1.34 3.65 0.68 5.3 0 7 C-0.98780477 9.19303397 -1.98854007 11.3802752 -3 13.5625 C-3.7734375 15.23505859 -3.7734375 15.23505859 -4.5625 16.94140625 C-5.35317977 18.62374935 -6.15294857 20.30228418 -6.9921875 21.9609375 C-8.46995474 24.95083865 -9.7974174 28.00397837 -11.125 31.0625 C-11.40214844 31.68705078 -11.67929687 32.31160156 -11.96484375 32.95507812 C-13.20452048 35.81610545 -14 37.84655019 -14 41 C-14.66 41 -15.32 41 -16 41 C-16 41.66 -16 42.32 -16 43 C-15.34 43.33 -14.68 43.66 -14 44 C-15.32 44 -16.64 44 -18 44 C-17.33787585 39.76359936 -15.91638872 36.18612405 -14.19921875 32.265625 C-13.92157181 31.62816345 -13.64392487 30.9907019 -13.35786438 30.33392334 C-12.47235205 28.30389754 -11.58002475 26.27695098 -10.6875 24.25 C-10.09916299 22.90384084 -9.51126826 21.55748828 -8.92382812 20.2109375 C-5.97565994 13.46206795 -2.99112009 6.7300202 0 0 Z " fill="#103491" transform="translate(522,510)"/>
<path d="M0 0 C47.78393825 -0.20638953 47.78393825 -0.20638953 67 1 C67 1.33 67 1.66 67 2 C61.29327043 2.14481544 55.58648514 2.28711306 49.87963867 2.42724609 C47.94505183 2.47508502 46.01048082 2.52356895 44.07592773 2.57275391 C32.71446532 2.86113083 21.36551408 3.07959508 10 3 C10 2.34 10 1.68 10 1 C6.7 1 3.4 1 0 1 C0 0.67 0 0.34 0 0 Z " fill="#164EBC" transform="translate(407,267)"/>
<path d="M0 0 C2.70702609 1.35351305 2.75142894 2.57501207 3.7265625 5.40234375 C4.0359375 6.29244141 4.3453125 7.18253906 4.6640625 8.09960938 C4.98117187 9.03611328 5.29828125 9.97261719 5.625 10.9375 C5.94984375 11.87013672 6.2746875 12.80277344 6.609375 13.76367188 C9 20.70954241 9 20.70954241 9 23 C3.39 23 -2.22 23 -8 23 C-5.36 15.41 -2.72 7.82 0 0 Z M0 4 C-0.83919398 6.26882087 -1.67151724 8.53977027 -2.5 10.8125 C-2.73847656 11.45509766 -2.97695313 12.09769531 -3.22265625 12.75976562 C-4.27068746 15.64933739 -5 17.90076061 -5 21 C-1.04 21.33 2.92 21.66 7 22 C5.37727326 15.74091114 3.73384207 9.85823301 1 4 C0.67 4 0.34 4 0 4 Z " fill="#0C0C19" transform="translate(566,667)"/>
<path d="M0 0 C2.40956928 2.96924919 4.75409304 5.98028068 7.05859375 9.03125 C7.60966797 9.75957031 8.16074219 10.48789062 8.72851562 11.23828125 C9.86642039 12.74421693 11.00184637 14.25202888 12.13476562 15.76171875 C14.54161697 18.93528003 16.86530218 21.86858749 19.72265625 24.65625 C22.25605674 27.26352323 23.44828893 29.72927747 25 33 C26.3560412 34.98609476 27.75211639 36.94546793 29.1875 38.875 C29.90292969 39.84179688 30.61835938 40.80859375 31.35546875 41.8046875 C31.89816406 42.52914062 32.44085938 43.25359375 33 44 C32.505 44.99 32.505 44.99 32 46 C31.02083333 44.71484375 30.04166667 43.4296875 29.0625 42.14453125 C28.42183594 41.30398193 27.78117187 40.46343262 27.12109375 39.59741211 C25.69536131 37.72548187 24.27090187 35.85258145 22.84765625 33.97875977 C19.05251445 28.98596392 15.23724976 24.01143049 11.375 19.0703125 C10.64152344 18.12567139 9.90804688 17.18103027 9.15234375 16.20776367 C7.7355503 14.38422065 6.31124355 12.56648629 4.87890625 10.75512695 C4.23824219 9.927146 3.59757812 9.09916504 2.9375 8.24609375 C2.08478516 7.15832642 2.08478516 7.15832642 1.21484375 6.04858398 C0 4 0 4 0 0 Z " fill="#2091EA" transform="translate(346,488)"/>
<path d="M0 0 C2 4 2 4 1.6015625 6.375 C-2.73700126 18.03705937 -10.10238651 27.50606038 -18 37 C-18.99 36.67 -19.98 36.34 -21 36 C-20.21625 35.2575 -19.4325 34.515 -18.625 33.75 C-16.43495469 31.45566682 -15.17268614 29.87841142 -14 27 C-13.34 27 -12.68 27 -12 27 C-12 26.01 -12 25.02 -12 24 C-11.02246356 22.97803008 -10.0194119 21.98020375 -9 21 C-7.82425289 18.90010348 -7.82425289 18.90010348 -7 17 C-6.34 17 -5.68 17 -5 17 C-4.67 14.69 -4.34 12.38 -4 10 C-3.34 10 -2.68 10 -2 10 C-1.34 6.7 -0.68 3.4 0 0 Z " fill="#23B1F7" transform="translate(725,416)"/>
<path d="M0 0 C0 5.81670435 -5.32096583 10.31806093 -9.2578125 14.26171875 C-13.17333958 17.85205798 -16.91103542 21.2247798 -22 23 C-24.375 22.6875 -24.375 22.6875 -26 22 C-25.01 21.34 -24.02 20.68 -23 20 C-23 19.34 -23 18.68 -23 18 C-19.535 17.505 -19.535 17.505 -16 17 C-15.67 16.01 -15.34 15.02 -15 14 C-14.01 13.67 -13.02 13.34 -12 13 C-11.67 12.34 -11.34 11.68 -11 11 C-10.01 11 -9.02 11 -8 11 C-7.773125 10.278125 -7.54625 9.55625 -7.3125 8.8125 C-5.74730392 5.45850839 -3.70307284 3.49514416 -1 1 C-0.67 0.67 -0.34 0.34 0 0 Z " fill="#239DF1" transform="translate(648,528)"/>
<path d="M0 0 C0 0.66 0 1.32 0 2 C-4.73241403 1.88125054 -9.46463941 1.75697105 -14.19677734 1.62768555 C-15.80481067 1.58451795 -17.41288448 1.54283099 -19.02099609 1.50268555 C-21.33964205 1.44453994 -23.65808761 1.38097609 -25.9765625 1.31640625 C-26.68930328 1.29969376 -27.40204407 1.28298126 -28.13638306 1.26576233 C-32.17344506 1.14739436 -36.03376939 0.76231929 -40 0 C-40 -0.33 -40 -0.66 -40 -1 C-35.75042881 -1.19422663 -31.50055706 -1.37260542 -27.24975586 -1.53710938 C-25.80752276 -1.59506271 -24.36544877 -1.65714344 -22.92358398 -1.72363281 C-14.9946503 -2.08641245 -7.70918801 -2.25676789 0 0 Z " fill="#1446AC" transform="translate(602,312)"/>
<path d="M0 0 C1.01642578 -0.01224609 2.03285156 -0.02449219 3.08007812 -0.03710938 C9.0210647 -0.04861548 14.12193631 0.46329328 19.8125 2.1875 C18.8225 3.1775 17.8325 4.1675 16.8125 5.1875 C16.26142578 4.86007812 15.71035156 4.53265625 15.14257812 4.1953125 C12.3989901 3.00864743 10.51071201 2.98712359 7.53125 3.0625 C6.52449219 3.07796875 5.51773438 3.0934375 4.48046875 3.109375 C2.91232422 3.14804687 2.91232422 3.14804687 1.3125 3.1875 C-0.76020521 3.2386148 -2.83315931 3.28064713 -4.90625 3.3125 C-6.28200195 3.34730469 -6.28200195 3.34730469 -7.68554688 3.3828125 C-10.33178845 3.17623626 -11.92365551 2.53256784 -14.1875 1.1875 C-9.53689626 -0.36270125 -4.8708333 0.00303101 0 0 Z " fill="#133E9F" transform="translate(602.1875,266.8125)"/>
<path d="M0 0 C13.27561188 2.98701267 21.74715364 18.60425355 29 29 C28.67 29.66 28.34 30.32 28 31 C26.81469209 29.49318 25.62953366 27.98624221 24.44506836 26.47875977 C23.43330603 25.19271563 22.41977204 23.90806349 21.40454102 22.62475586 C19.24092852 19.88441026 17.10470938 17.14524204 15.0625 14.3125 C11.32266291 9.13426403 7.31886227 5.77458793 1.94140625 2.3125 C1.30074219 1.879375 0.66007813 1.44625 0 1 C0 0.67 0 0.34 0 0 Z " fill="#080723" transform="translate(628,271)"/>
<path d="M0 0 C1.98 0.99 1.98 0.99 4 2 C4 2.99 4 3.98 4 5 C4.99 5.33 5.98 5.66 7 6 C7 6.99 7 7.98 7 9 C7.95326172 9.35964844 7.95326172 9.35964844 8.92578125 9.7265625 C11 11 11 11 11.79296875 13.0234375 C11.98826172 14.18746094 11.98826172 14.18746094 12.1875 15.375 C12.39439453 16.53128906 12.39439453 16.53128906 12.60546875 17.7109375 C12.80076172 18.84402344 12.80076172 18.84402344 13 20 C13.36544922 21.04027344 13.36544922 21.04027344 13.73828125 22.1015625 C13.82464844 22.72804688 13.91101563 23.35453125 14 24 C12.5625 25.75 12.5625 25.75 11 27 C10.938125 25.1128125 10.938125 25.1128125 10.875 23.1875 C9.98445908 15.01775503 5.1723993 8.16709147 0 2 C0 1.34 0 0.68 0 0 Z " fill="#229DF4" transform="translate(668,389)"/>
<path d="M0 0 C3.62939337 3.48164815 6.69030814 7.06428845 9.6875 11.125 C10.45449219 12.15882813 11.22148438 13.19265625 12.01171875 14.2578125 C13.37970722 16.1445078 14.70729721 18.06094582 16 20 C15.625 22.1875 15.625 22.1875 15 24 C13 21 13 21 13 18 C12.34 18 11.68 18 11 18 C8.9909783 15.21329248 7.21242392 12.38790454 5.5625 9.375 C3.74200754 6.60785147 1.66155469 4.94221559 -1 3 C-0.67 2.01 -0.34 1.02 0 0 Z " fill="#23A6F5" transform="translate(707,369)"/>
<path d="M0 0 C0.33 0.99 0.66 1.98 1 3 C-0.11564348 4.45371726 -1.24998142 5.89679366 -2.47265625 7.26171875 C-4.09317474 9.10604287 -5.54475227 11.02313101 -7 13 C-9.55352187 16.43997764 -12.2256423 19.73604976 -15 23 C-15.66 22.34 -16.32 21.68 -17 21 C-15.10494237 18.62437752 -13.20897795 16.24948822 -11.3125 13.875 C-10.78205078 13.20984375 -10.25160156 12.5446875 -9.70507812 11.859375 C-6.51505963 7.86695922 -3.28594765 3.91387457 0 0 Z " fill="#1D83E6" transform="translate(355,318)"/>
<path d="M0 0 C0.33 0.66 0.66 1.32 1 2 C-1.07836402 4.75378742 -3.16355763 7.50232965 -5.25 10.25 C-5.83652344 11.02730469 -6.42304688 11.80460937 -7.02734375 12.60546875 C-9.83478193 16.29614591 -12.57608871 19.8472896 -16 23 C-15.02860049 19.29102006 -13.89412374 16.65989483 -11.375 13.8125 C-8.67740959 11.23150814 -8.67740959 11.23150814 -9 8 C-7.34467377 6.98133771 -5.67739862 5.98189187 -4 5 C-3.67 4.01 -3.34 3.02 -3 2 C-2.01 1.34 -1.02 0.68 0 0 Z " fill="#1E8AE9" transform="translate(362,380)"/>
<path d="M0 0 C3.96 0.33 7.92 0.66 12 1 C8 4 8 4 5.5625 3.6875 C2.91670669 3.71014989 2.91670669 3.71014989 1.640625 5.6640625 C0.35532504 7.7432242 -0.83057725 9.85400667 -2 12 C-2.66 12.99 -3.32 13.98 -4 15 C-5.32830615 11.01508155 -4.23204404 9.59951452 -2.5625 5.8125 C-2.08941406 4.72582031 -1.61632812 3.63914062 -1.12890625 2.51953125 C-0.75636719 1.68808594 -0.38382813 0.85664063 0 0 Z " fill="#0C2273" transform="translate(579,266)"/>
<path d="M0 0 C1.17239567 3.51718702 0.81331475 4.11834238 -0.58203125 7.4140625 C-0.93716797 8.25710938 -1.29230469 9.10015625 -1.65820312 9.96875 C-2.03912109 10.8453125 -2.42003906 11.721875 -2.8125 12.625 C-3.36647461 13.95144531 -3.36647461 13.95144531 -3.93164062 15.3046875 C-6.73490828 21.86745414 -6.73490828 21.86745414 -9 23 C-8.67 20.69 -8.34 18.38 -8 16 C-7.34 16 -6.68 16 -6 16 C-5.28805413 13.45733619 -4.88618171 11.0731939 -4.5625 8.4375 C-4 5 -4 5 -2 2 C-1.34 2 -0.68 2 0 2 C0 1.34 0 0.68 0 0 Z " fill="#1F88E9" transform="translate(524,395)"/>
<path d="M0 0 C3.53191322 3.43153914 6.7137505 6.97375062 9.8125 10.8125 C10.60269531 11.78832031 11.39289062 12.76414062 12.20703125 13.76953125 C13.09455078 14.87361328 13.09455078 14.87361328 14 16 C13.34 16.66 12.68 17.32 12 18 C11.66226563 17.50628906 11.32453125 17.01257813 10.9765625 16.50390625 C10.53054688 15.86324219 10.08453125 15.22257812 9.625 14.5625 C9.18414063 13.92441406 8.74328125 13.28632813 8.2890625 12.62890625 C7.07839147 10.86259072 7.07839147 10.86259072 5 10 C4.33333333 8.66666667 3.66666667 7.33333333 3 6 C2.34 5.67 1.68 5.34 1 5 C0.375 2.4375 0.375 2.4375 0 0 Z " fill="#1E91ED" transform="translate(676,329)"/>
<path d="M0 0 C0 3.73982958 -1.00300839 4.63106632 -3.3125 7.5 C-3.92738281 8.2734375 -4.54226563 9.046875 -5.17578125 9.84375 C-6.71389954 11.66182558 -8.28358063 13.35223741 -10 15 C-10.66 14.67 -11.32 14.34 -12 14 C-11.67 13.01 -11.34 12.02 -11 11 C-10.01 11 -9.02 11 -8 11 C-7.773125 10.278125 -7.54625 9.55625 -7.3125 8.8125 C-5.74730392 5.45850839 -3.70307284 3.49514416 -1 1 C-0.67 0.67 -0.34 0.34 0 0 Z " fill="#26ADF7" transform="translate(648,528)"/>
<path d="M0 0 C3 1 3 1 4.42578125 3.6953125 C4.94527344 4.78585937 5.46476562 5.87640625 6 7 C7.3560412 8.98609476 8.75211639 10.94546793 10.1875 12.875 C10.90292969 13.84179688 11.61835938 14.80859375 12.35546875 15.8046875 C12.89816406 16.52914062 13.44085938 17.25359375 14 18 C13.67 18.66 13.34 19.32 13 20 C10.82159208 17.23821729 8.65938531 14.46417321 6.5 11.6875 C5.87996094 10.90181641 5.25992187 10.11613281 4.62109375 9.30664062 C4.03457031 8.54931641 3.44804687 7.79199219 2.84375 7.01171875 C2.29912109 6.31522217 1.75449219 5.61872559 1.19335938 4.90112305 C0 3 0 3 0 0 Z " fill="#1D84E4" transform="translate(365,514)"/>
<path d="M0 0 C0.66 0.33 1.32 0.66 2 1 C-0.7479213 5.27454425 -3.69250989 9.14126153 -7 13 C-7.66 12.67 -8.32 12.34 -9 12 C-6.03 8.04 -3.06 4.08 0 0 Z " fill="#06061B" transform="translate(720,435)"/>
<path d="M0 0 C2.58361518 -0.05407567 5.16609255 -0.093707 7.75 -0.125 C8.84441406 -0.15013672 8.84441406 -0.15013672 9.9609375 -0.17578125 C13.8044624 -0.21072239 16.74606772 -0.17499684 20 2 C18.02 2.99 18.02 2.99 16 4 C15.01 3.34 14.02 2.68 13 2 C9.80193335 1.5396236 9.80193335 1.5396236 6.3125 1.375 C4.54326172 1.26285156 4.54326172 1.26285156 2.73828125 1.1484375 C1.83464844 1.09945313 0.93101562 1.05046875 0 1 C0 0.67 0 0.34 0 0 Z " fill="#1658C2" transform="translate(602,268)"/>
<path d="M0 0 C3.63559661 3.43361902 6.36113346 6.7973607 9 11 C8.01 11.495 8.01 11.495 7 12 C5 11 5 11 4.125 8.75 C2.86181712 5.66221961 1.16095927 3.52111915 -1 1 C-0.67 0.67 -0.34 0.34 0 0 Z " fill="#219DF3" transform="translate(698,357)"/>
<path d="M0 0 C2 1.8125 2 1.8125 4 4 C4 7 4 7 2 9.1875 C1.34 9.785625 0.68 10.38375 0 11 C0 7.37 0 3.74 0 0 Z " fill="#0F1033" transform="translate(458,675)"/>
<path d="M0 0 C0 3.60573896 -0.81707462 4.41336566 -3 7.1875 C-3.556875 7.90292969 -4.11375 8.61835937 -4.6875 9.35546875 C-5.120625 9.89816406 -5.55375 10.44085937 -6 11 C-6.66 10.67 -7.32 10.34 -8 10 C-7.67 9.01 -7.34 8.02 -7 7 C-6.34 7 -5.68 7 -5 7 C-5 6.34 -5 5.68 -5 5 C-4.34 5 -3.68 5 -3 5 C-2.690625 4.360625 -2.38125 3.72125 -2.0625 3.0625 C-1 1 -1 1 0 0 Z " fill="#27B4F8" transform="translate(657,516)"/>
<path d="M0 0 C3.98069267 2.87494471 6.43571997 5.82117329 9 10 C8.67 10.66 8.34 11.32 8 12 C6.66081194 10.37982158 5.3288031 8.75370657 4 7.125 C3.2575 6.22007812 2.515 5.31515625 1.75 4.3828125 C0 2 0 2 0 0 Z " fill="#070920" transform="translate(699,356)"/>
<path d="M0 0 C1 3 1 3 0.22265625 5.04296875 C-0.16019531 5.75066406 -0.54304688 6.45835937 -0.9375 7.1875 C-1.31777344 7.90292969 -1.69804687 8.61835938 -2.08984375 9.35546875 C-2.54037109 10.16951172 -2.54037109 10.16951172 -3 11 C-4.25460729 8.49078542 -3.86211613 7.61169775 -3.1875 4.9375 C-3.01605469 4.22464844 -2.84460938 3.51179688 -2.66796875 2.77734375 C-2 1 -2 1 0 0 Z " fill="#1F87E9" transform="translate(480,500)"/>
<path d="M0 0 C-1.49097658 3.7952131 -3.75700849 5.61042731 -7 8 C-7.66 7.67 -8.32 7.34 -9 7 C-7.88121617 5.82737096 -6.75476949 4.66204862 -5.625 3.5 C-4.68527344 2.52546875 -4.68527344 2.52546875 -3.7265625 1.53125 C-2 0 -2 0 0 0 Z " fill="#1E87E5" transform="translate(617,497)"/>
<path d="M0 0 C2.6855594 2.6855594 3.06049974 5.37621328 4 9 C3.01 9.99 2.02 10.98 1 12 C0.67 8.04 0.34 4.08 0 0 Z " fill="#23ADFD" transform="translate(678,404)"/>
<path d="M0 0 C1 3 1 3 0.22265625 5.04296875 C-0.16019531 5.75066406 -0.54304687 6.45835937 -0.9375 7.1875 C-1.31777344 7.90292969 -1.69804688 8.61835938 -2.08984375 9.35546875 C-2.54037109 10.16951172 -2.54037109 10.16951172 -3 11 C-4.60031344 7.79937313 -3.03173691 5.27728194 -2 2 C-1.34 2 -0.68 2 0 2 C0 1.34 0 0.68 0 0 Z " fill="#1F86E8" transform="translate(529,383)"/>
<path d="M0 0 C3.96 0.33 7.92 0.66 12 1 C8 4 8 4 5.859375 3.85546875 C3.90625 3.23697917 1.953125 2.61848958 0 2 C0 1.34 0 0.68 0 0 Z " fill="#0F2F89" transform="translate(579,266)"/>
<path d="M0 0 C1 3 1 3 0.22265625 5.04296875 C-0.16019531 5.75066406 -0.54304687 6.45835937 -0.9375 7.1875 C-1.31777344 7.90292969 -1.69804688 8.61835938 -2.08984375 9.35546875 C-2.54037109 10.16951172 -2.54037109 10.16951172 -3 11 C-4 9 -4 9 -3.1875 6.0625 C-2 3 -2 3 0 0 Z " fill="#1F85E8" transform="translate(542,352)"/>
<path d="M0 0 C0.66 0 1.32 0 2 0 C3.125 4.75 3.125 4.75 2 7 C1.34 7 0.68 7 0 7 C-0.93423645 3.98968256 -1.04449911 3.13349732 0 0 Z " fill="#0D0D25" transform="translate(278,688)"/>
<path d="M0 0 C0.66 0 1.32 0 2 0 C2.33 0.99 2.66 1.98 3 3 C0.77810176 5.22189824 -1.08482708 5.92598892 -4 7 C-2.68 4.69 -1.36 2.38 0 0 Z " fill="#080721" transform="translate(653,523)"/>
<path d="M0 0 C0.33 0 0.66 0 1 0 C3 5.625 3 5.625 3 9 C1.29115995 7.37660195 -0.37446717 5.70680947 -2 4 C-2 3.34 -2 2.68 -2 2 C-1.34 2 -0.68 2 0 2 C0 1.34 0 0.68 0 0 Z " fill="#219DEC" transform="translate(316,446)"/>
<path d="M0 0 C0.33 0.66 0.66 1.32 1 2 C1.66 2 2.32 2 3 2 C3.66 3.65 4.32 5.3 5 7 C4.01 7 3.02 7 2 7 C1.01 5.02 0.02 3.04 -1 1 C-0.67 0.67 -0.34 0.34 0 0 Z " fill="#219DEA" transform="translate(303,431)"/>
<path d="M0 0 C1.67542976 0.28604898 3.34385343 0.61781233 5 1 C3 3 3 3 1.0546875 3.1953125 C-0.96354167 3.13020833 -2.98177083 3.06510417 -5 3 C-4.360625 2.690625 -3.72125 2.38125 -3.0625 2.0625 C-1.06389179 1.1654837 -1.06389179 1.1654837 0 0 Z " fill="#219CF3" transform="translate(616,550)"/>
<path d="M0 0 C0.99 0.33 1.98 0.66 3 1 C1.02 3.97 1.02 3.97 -1 7 C-1.66 6.67 -2.32 6.34 -3 6 C-2.67 5.01 -2.34 4.02 -2 3 C-1.34 3 -0.68 3 0 3 C0 2.01 0 1.02 0 0 Z " fill="#23AAEE" transform="translate(713,440)"/>
</svg>
